<svg viewBox="-2 -6 38 32" xmlns="http://www.w3.org/2000/svg">
  <style>
    path, rect { fill: #111827; }
    @media (prefers-color-scheme: dark) {
      path, rect { fill: #ffffff; }
    }
  </style>
  <rect x="2" y="5" width="3" height="3" />
  <rect x="5.5" y="2.5" width="2.5" height="2.5" />
  <rect x="1" y="1" width="2.5" height="2.5" />
  <rect x="4" y="-1.5" width="2" height="2" />
  <rect x="-1" y="-2.5" width="2" height="2" />
  <rect x="1" y="-5" width="1.5" height="1.5" />
  <path d="M 2 9 L 2 16 A 8 8 0 0 0 18 16 L 18 4 L 14 4 L 14 16 A 4 4 0 0 1 6 16 L 6 9 Z" />
  <path fill-rule="evenodd" clip-rule="evenodd" d="M 20 4 L 20 24 L 24 24 A 10 10 0 0 0 34 14 A 10 10 0 0 0 24 4 Z M 24 8 L 24 20 A 6 6 0 0 0 30 14 A 6 6 0 0 0 24 8 Z" />
</svg>
